<svg aria-hidden="true" style="position: absolute; width: 0; height: 0; overflow: hidden;" version="1.1" xmlns="http://www.w3.org/2000/svg" xmlns:xlink="http://www.w3.org/1999/xlink">
    <defs>
        <symbol id="icon-redo" viewBox="0 0 24 24">
            <path d="M18.422 10.594l3.563-3.609v9h-9l3.656-3.609q-2.25-1.875-5.156-1.875-2.391 0-4.617 1.594t-2.977 3.891l-2.344-0.75q1.031-3.188 3.773-5.203t6.164-2.016q3.984 0 6.938 2.578z"></path>
        </symbol>
        <symbol id="icon-ballot" viewBox="0 0 24 24">
            <path d="M6.984 14.016h3v3h-3v-3zM6 18h5.016v-5.016h-5.016v5.016zM6.984 6.984h3v3h-3v-3zM6 11.016h5.016v-5.016h-5.016v5.016zM18.984 21h-13.969q-0.797 0-1.406-0.609t-0.609-1.406v-13.969q0-0.797 0.609-1.406t1.406-0.609h13.969q0.797 0 1.406 0.609t0.609 1.406v13.969q0 0.797-0.609 1.406t-1.406 0.609zM12.984 16.5h5.016v-2.016h-5.016v2.016zM12.984 9.516h5.016v-2.016h-5.016v2.016z"></path>
        </symbol>
        <symbol id="icon-redo" viewBox="0 0 24 24">
            <path d="M18.422 10.594l3.563-3.609v9h-9l3.656-3.609q-2.25-1.875-5.156-1.875-2.391 0-4.617 1.594t-2.977 3.891l-2.344-0.75q1.031-3.188 3.773-5.203t6.164-2.016q3.984 0 6.938 2.578z"></path>
        </symbol>
        <symbol id="icon-search" viewBox="0 0 32 32">
            <path d="M31.008 27.231l-7.58-6.447c-0.784-0.705-1.622-1.029-2.299-0.998 1.789-2.096 2.87-4.815 2.87-7.787 0-6.627-5.373-12-12-12s-12 5.373-12 12 5.373 12 12 12c2.972 0 5.691-1.081 7.787-2.87-0.031 0.677 0.293 1.515 0.998 2.299l6.447 7.58c1.104 1.226 2.907 1.33 4.007 0.23s0.997-2.903-0.23-4.007zM12 20c-4.418 0-8-3.582-8-8s3.582-8 8-8 8 3.582 8 8-3.582 8-8 8z"></path>
        </symbol>
        <symbol id="icon-production_quantity_limits_FILL0_wght400_GRAD0_opsz48" viewBox="0 0 32 32">
            <path d="M9.66 29.333q-0.993 0-1.693-0.707t-0.7-1.7 0.707-1.693 1.7-0.7 1.693 0.707 0.7 1.7-0.707 1.693-1.7 0.7zM23.126 29.333q-0.993 0-1.693-0.707t-0.7-1.7 0.707-1.693 1.7-0.7 1.693 0.707 0.7 1.7-0.707 1.693-1.7 0.7zM16 12.533q-0.482 0-0.807-0.326t-0.326-0.807 0.326-0.807 0.807-0.326 0.808 0.326 0.326 0.807-0.326 0.807-0.808 0.326zM15 8v-6.667h2v6.667h-2zM9.667 22.433q-1.4 0-2.050-1.133t0.017-2.3l2.033-3.7-5-10.633h-2.6v-2h3.867l5.667 12.133h9.733l5.2-9.333 1.733 0.933-5.1 9.233q-0.312 0.556-0.823 0.861t-1.211 0.306h-10l-2.067 3.633h16.467v2h-15.867z"></path>
        </symbol>
        <symbol id="icon-shopping_cart_black_24dp" viewBox="0 0 32 32">
            <path d="M9.333 24c-1.467 0-2.653 1.2-2.653 2.667s1.187 2.667 2.653 2.667 2.667-1.2 2.667-2.667-1.2-2.667-2.667-2.667zM1.333 2.667v2.667h2.667l4.8 10.12-1.8 3.267c-0.213 0.373-0.333 0.813-0.333 1.28 0 1.467 1.2 2.667 2.667 2.667h16v-2.667h-15.44c-0.187 0-0.333-0.147-0.333-0.333l0.040-0.16 1.2-2.173h9.933c1 0 1.88-0.547 2.333-1.373l4.773-8.653c0.107-0.187 0.16-0.413 0.16-0.64 0-0.733-0.6-1.333-1.333-1.333h-19.72l-1.253-2.667h-4.36zM22.667 24c-1.467 0-2.653 1.2-2.653 2.667s1.187 2.667 2.653 2.667 2.667-1.2 2.667-2.667-1.2-2.667-2.667-2.667z"></path>
        </symbol>
        <symbol id="icon-home" viewBox="0 0 24 24">
            <path d="M12 3c0 0-6.186 5.34-9.643 8.232-0.203 0.184-0.357 0.452-0.357 0.768 0 0.553 0.447 1 1 1h2v7c0 0.553 0.447 1 1 1h3c0.553 0 1-0.448 1-1v-4h4v4c0 0.552 0.447 1 1 1h3c0.553 0 1-0.447 1-1v-7h2c0.553 0 1-0.447 1-1 0-0.316-0.154-0.584-0.383-0.768-3.433-2.892-9.617-8.232-9.617-8.232z"></path>
        </symbol>
        <symbol id="icon-badge" viewBox="0 0 24 24">
            <path d="M18 13.5v-1.5h-3.984v1.5h3.984zM18 16.5v-1.5h-3.984v1.5h3.984zM12.984 9v-5.016h-1.969v5.016h1.969zM12 18v-0.75q0-0.656-1.031-1.078t-1.969-0.422-1.969 0.422-1.031 1.078v0.75h6zM9 12q-0.656 0-1.078 0.422t-0.422 1.078 0.422 1.078 1.078 0.422 1.078-0.422 0.422-1.078-0.422-1.078-1.078-0.422zM20.016 6.984q0.797 0 1.383 0.609t0.586 1.406v11.016q0 0.797-0.586 1.383t-1.383 0.586h-16.031q-0.797 0-1.383-0.586t-0.586-1.383v-11.016q0-0.797 0.586-1.406t1.383-0.609h5.016v-3q0-0.797 0.609-1.383t1.406-0.586h1.969q0.797 0 1.406 0.586t0.609 1.383v3h5.016z"></path>
        </symbol>
        <symbol id="icon-inventory" viewBox="0 0 24 24">
            <path d="M20.016 6.984v-3h-16.031v3h16.031zM15 14.016v-2.016h-6v2.016h6zM20.016 2.016q0.75 0 1.359 0.586t0.609 1.383v3.047q0 1.125-0.984 1.688v11.297q0 0.797-0.656 1.383t-1.359 0.586h-13.969q-0.703 0-1.359-0.586t-0.656-1.383v-11.297q-0.984-0.563-0.984-1.688v-3.047q0-0.797 0.609-1.383t1.359-0.586h16.031z"></path>
        </symbol>
        <symbol id="icon-group_black_24dp" viewBox="0 0 32 32">
            <path d="M21.333 14.667c2.213 0 3.987-1.787 3.987-4s-1.773-4-3.987-4c-2.213 0-4 1.787-4 4s1.787 4 4 4zM10.667 14.667c2.213 0 3.987-1.787 3.987-4s-1.773-4-3.987-4c-2.213 0-4 1.787-4 4s1.787 4 4 4zM10.667 17.333c-3.107 0-9.333 1.56-9.333 4.667v3.333h18.667v-3.333c0-3.107-6.227-4.667-9.333-4.667zM21.333 17.333c-0.387 0-0.827 0.027-1.293 0.067 1.547 1.12 2.627 2.627 2.627 4.6v3.333h8v-3.333c0-3.107-6.227-4.667-9.333-4.667z"></path>
        </symbol>
        <symbol id="icon-search" viewBox="0 0 32 32">
            <path d="M31.008 27.231l-7.58-6.447c-0.784-0.705-1.622-1.029-2.299-0.998 1.789-2.096 2.87-4.815 2.87-7.787 0-6.627-5.373-12-12-12s-12 5.373-12 12 5.373 12 12 12c2.972 0 5.691-1.081 7.787-2.87-0.031 0.677 0.293 1.515 0.998 2.299l6.447 7.58c1.104 1.226 2.907 1.33 4.007 0.23s0.997-2.903-0.23-4.007zM12 20c-4.418 0-8-3.582-8-8s3.582-8 8-8 8 3.582 8 8-3.582 8-8 8z"></path>
        </symbol>
        <symbol id="icon-display_settings_FILL0_wght400_GRAD0_opsz48" viewBox="0 0 32 32">
            <path d="M10 19.667h1.333v-4.667h-1.333v1.667h-2v1.333h2v1.667zM13.333 18h10.667v-1.333h-10.667v1.333zM20.667 14.333h1.333v-1.667h2v-1.333h-2v-1.667h-1.333v4.667zM8 12.667h10.667v-1.333h-10.667v1.333zM11 28v-2.667h-6.333q-0.8 0-1.4-0.6t-0.6-1.4v-17.333q0-0.8 0.6-1.4t1.4-0.6h22.667q0.8 0 1.4 0.6t0.6 1.4v17.333q0 0.8-0.6 1.4t-1.4 0.6h-6.333v2.667h-10zM4.667 23.333h22.667v-17.333h-22.667v17.333zM4.667 23.333v0z"></path>
        </symbol>
        <symbol id="icon-menu" viewBox="0 0 20 20">
            <path d="M0 3h20v2h-20v-2zM0 9h20v2h-20v-2zM0 15h20v2h-20v-2z"></path>
        </symbol>
        <symbol id="icon-arrow-down" viewBox="0 0 20 20">
            <path d="M17.418 6.109c0.272-0.268 0.709-0.268 0.979 0s0.271 0.701 0 0.969l-7.908 7.83c-0.27 0.268-0.707 0.268-0.979 0l-7.908-7.83c-0.27-0.268-0.27-0.701 0-0.969s0.709-0.268 0.979 0l7.419 7.141 7.418-7.141z"></path>
        </symbol>
        <symbol id="icon-link" viewBox="0 0 24 24">
            <path d="M17.016 6.984q2.063 0 3.516 1.477t1.453 3.539-1.453 3.539-3.516 1.477h-4.031v-1.922h4.031q1.266 0 2.18-0.914t0.914-2.18-0.914-2.18-2.18-0.914h-4.031v-1.922h4.031zM8.016 12.984v-1.969h7.969v1.969h-7.969zM3.891 12q0 1.266 0.914 2.18t2.18 0.914h4.031v1.922h-4.031q-2.063 0-3.516-1.477t-1.453-3.539 1.453-3.539 3.516-1.477h4.031v1.922h-4.031q-1.266 0-2.18 0.914t-0.914 2.18z"></path>
        </symbol>
        <symbol id="icon-dots-three-vertical" viewBox="0 0 20 20">
            <path d="M10.001 7.8c-1.215 0-2.201 0.985-2.201 2.2s0.986 2.2 2.201 2.2c1.215 0 2.199-0.985 2.199-2.2s-0.984-2.2-2.199-2.2zM10.001 5.2c1.215 0 2.199-0.986 2.199-2.2s-0.984-2.2-2.199-2.2c-1.215 0-2.201 0.985-2.201 2.2s0.986 2.2 2.201 2.2zM10.001 14.8c-1.215 0-2.201 0.985-2.201 2.2s0.986 2.2 2.201 2.2c1.215 0 2.199-0.985 2.199-2.2s-0.984-2.2-2.199-2.2z"></path>
        </symbol>
    </defs>
</svg>